<svg width="36" height="36" viewBox="0 0 36 36" fill="none" xmlns="http://www.w3.org/2000/svg">
<path d="M17.3139 12.9202V8.34044H12.6969V6.1064H17.3139V1.52661H19.548V6.1064H24.1277V8.34044H19.548V12.9202H17.3139ZM10.7901 32.766C10.0507 32.766 9.4203 32.5027 8.89902 31.9762C8.37774 31.4498 8.1171 30.8168 8.1171 30.0773C8.1171 29.3378 8.38035 28.7075 8.90684 28.1862C9.43333 27.6649 10.0663 27.4043 10.8058 27.4043C11.5452 27.4043 12.1756 27.6675 12.6969 28.194C13.2182 28.7205 13.4788 29.3535 13.4788 30.0929C13.4788 30.8324 13.2156 31.4628 12.6891 31.9841C12.1626 32.5053 11.5296 32.766 10.7901 32.766ZM25.8327 32.766C25.0932 32.766 24.4628 32.5027 23.9416 31.9762C23.4203 31.4498 23.1597 30.8168 23.1597 30.0773C23.1597 29.3378 23.4229 28.7075 23.9494 28.1862C24.4759 27.6649 25.1089 27.4043 25.8483 27.4043C26.5878 27.4043 27.2182 27.6675 27.7394 28.194C28.2607 28.7205 28.5214 29.3535 28.5214 30.0929C28.5214 30.8324 28.2581 31.4628 27.7316 31.9841C27.2051 32.5053 26.5722 32.766 25.8327 32.766ZM2.30859 5.21278V2.97874H6.62774L12.9575 16.5319H23.6701L29.6384 6.1064H32.1331L25.282 18.9521H12.3246L10.2394 22.8245H28.5214V25.0585H6.51604L10.7235 17.2766L5.21285 5.21278H2.30859Z" fill="white"/>
</svg>
