<svg width="17" height="20" viewBox="0 0 17 20" fill="none" xmlns="http://www.w3.org/2000/svg">
<path d="M7.50963 11.8399V9.86657H9.38704V11.8399H7.50963ZM3.75481 11.8399V9.86657H5.63222V11.8399H3.75481ZM11.2644 11.8399V9.86657H13.1419V11.8399H11.2644ZM7.50963 15.7865V13.8132H9.38704V15.7865H7.50963ZM3.75481 15.7865V13.8132H5.63222V15.7865H3.75481ZM11.2644 15.7865V13.8132H13.1419V15.7865H11.2644ZM0 19.7331V1.47999H2.93345V0H4.45884V1.47999H12.4378V0H13.9632V1.47999H16.8967V19.7331H0ZM1.40806 18.2532H15.4886V7.64659H1.40806V18.2532ZM1.40806 6.16661H15.4886V2.95997H1.40806V6.16661Z" fill="#1E1E1E"/>
</svg>
