<svg width="35" height="35" viewBox="0 0 35 35" fill="none" xmlns="http://www.w3.org/2000/svg">
<path d="M7.1097 27.8906C6.25901 27.0399 5.83366 26.0069 5.83366 24.7916H2.18783L2.84408 21.875H6.96387C7.37706 21.4132 7.86317 21.0547 8.4222 20.7995C8.98123 20.5443 9.57671 20.4166 10.2087 20.4166C10.8406 20.4166 11.4361 20.5443 11.9951 20.7995C12.5541 21.0547 13.0403 21.4132 13.4535 21.875H19.542L22.6045 8.74998H6.63574L6.78158 8.13019C6.92741 7.44963 7.26161 6.89668 7.78418 6.47133C8.30675 6.04599 8.92046 5.83331 9.62533 5.83331H26.2503L24.9014 11.6666H29.167L33.542 17.5L32.0837 24.7916H29.167C29.167 26.0069 28.7416 27.0399 27.8909 27.8906C27.0403 28.7413 26.0073 29.1666 24.792 29.1666C23.5767 29.1666 22.5437 28.7413 21.693 27.8906C20.8423 27.0399 20.417 26.0069 20.417 24.7916H14.5837C14.5837 26.0069 14.1583 27.0399 13.3076 27.8906C12.4569 28.7413 11.4239 29.1666 10.2087 29.1666C8.99338 29.1666 7.96039 28.7413 7.1097 27.8906ZM23.2243 18.9583H30.2607L30.4066 18.1927L27.7087 14.5833H24.2451L23.2243 18.9583ZM22.5316 9.00519L22.6045 8.74998L19.542 21.875L19.6149 21.6198L20.8545 16.2969L22.5316 9.00519ZM0.729492 19.4323L1.45866 16.5156H9.47949L8.75033 19.4323H0.729492ZM3.64616 14.1094L4.37533 11.1927H13.8545L13.1253 14.1094H3.64616ZM10.2087 26.25C10.6219 26.25 10.9682 26.1102 11.2477 25.8307C11.5272 25.5512 11.667 25.2048 11.667 24.7916C11.667 24.3785 11.5272 24.0321 11.2477 23.7526C10.9682 23.4731 10.6219 23.3333 10.2087 23.3333C9.79546 23.3333 9.44911 23.4731 9.1696 23.7526C8.89008 24.0321 8.75033 24.3785 8.75033 24.7916C8.75033 25.2048 8.89008 25.5512 9.1696 25.8307C9.44911 26.1102 9.79546 26.25 10.2087 26.25ZM24.792 26.25C25.2052 26.25 25.5515 26.1102 25.8311 25.8307C26.1106 25.5512 26.2503 25.2048 26.2503 24.7916C26.2503 24.3785 26.1106 24.0321 25.8311 23.7526C25.5515 23.4731 25.2052 23.3333 24.792 23.3333C24.3788 23.3333 24.0324 23.4731 23.7529 23.7526C23.4734 24.0321 23.3337 24.3785 23.3337 24.7916C23.3337 25.2048 23.4734 25.5512 23.7529 25.8307C24.0324 26.1102 24.3788 26.25 24.792 26.25Z" fill="#1E1E1E"/>
</svg>
