<svg width="17" height="17" viewBox="0 0 17 17" fill="none" xmlns="http://www.w3.org/2000/svg">
<g clip-path="url(#clip0_382_1298)">
<path d="M12.2898 4.56461H12.2968M4.91575 1.4043H11.9387C13.878 1.4043 15.4501 2.97643 15.4501 4.91575V11.9387C15.4501 13.878 13.878 15.4501 11.9387 15.4501H4.91575C2.97643 15.4501 1.4043 13.878 1.4043 11.9387V4.91575C1.4043 2.97643 2.97643 1.4043 4.91575 1.4043ZM11.2364 7.98477C11.323 8.56925 11.2232 9.16617 10.9511 9.69064C10.6789 10.2151 10.2484 10.6404 9.72057 10.9061C9.19278 11.1717 8.59467 11.2642 8.0113 11.1703C7.42794 11.0764 6.88902 10.801 6.47122 10.3832C6.05341 9.9654 5.77798 9.42648 5.68411 8.84312C5.59024 8.25975 5.6827 7.66164 5.94835 7.13385C6.214 6.60607 6.63931 6.17548 7.16378 5.90334C7.68825 5.63121 8.28517 5.53137 8.86965 5.61805C9.46584 5.70645 10.0178 5.98426 10.444 6.41044C10.8702 6.83663 11.148 7.38858 11.2364 7.98477Z" stroke="#1E1E1E" stroke-width="1.6855" stroke-linecap="round" stroke-linejoin="round"/>
</g>
<defs>
<clipPath id="clip0_382_1298">
<rect width="16.855" height="16.855" fill="white"/>
</clipPath>
</defs>
</svg>
