<svg width="16" height="19" viewBox="0 0 16 19" fill="none" xmlns="http://www.w3.org/2000/svg">
<path d="M8.67128 8.76762C8.992 8.44334 9.15236 8.05182 9.15236 7.59307C9.15236 7.13432 8.992 6.7428 8.67128 6.41852C8.35055 6.09423 7.96334 5.93209 7.50963 5.93209C7.05592 5.93209 6.66871 6.09423 6.34798 6.41852C6.02726 6.7428 5.8669 7.13432 5.8669 7.59307C5.8669 8.05182 6.02726 8.44334 6.34798 8.76762C6.66871 9.09191 7.05592 9.25405 7.50963 9.25405C7.96334 9.25405 8.35055 9.09191 8.67128 8.76762ZM7.50963 17.1081C9.59042 15.194 11.1276 13.4579 12.121 11.8998C13.1145 10.3416 13.6112 8.96931 13.6112 7.7829C13.6112 5.91627 13.0206 4.38974 11.8394 3.20333C10.6582 2.01691 9.21494 1.4237 7.50963 1.4237C5.80432 1.4237 4.36106 2.01691 3.17986 3.20333C1.99866 4.38974 1.40806 5.91627 1.40806 7.7829C1.40806 8.96931 1.91652 10.3416 2.93345 11.8998C3.95038 13.4579 5.47577 15.194 7.50963 17.1081ZM7.50963 18.9827C4.99078 16.8155 3.10946 14.8025 1.86567 12.9438C0.621891 11.0851 0 9.36479 0 7.7829C0 5.41006 0.754874 3.5197 2.26462 2.11182C3.77437 0.703941 5.52271 0 7.50963 0C9.49655 0 11.2449 0.703941 12.7546 2.11182C14.2644 3.5197 15.0193 5.41006 15.0193 7.7829C15.0193 9.36479 14.3974 11.0851 13.1536 12.9438C11.9098 14.8025 10.0285 16.8155 7.50963 18.9827Z" fill="#1E1E1E"/>
</svg>
