<svg width="19" height="19" viewBox="0 0 19 19" fill="none" xmlns="http://www.w3.org/2000/svg">
<path d="M12.8368 14.0709L13.8928 13.0031L10.1615 9.2066V4.4372H8.75341V9.77608L12.8368 14.0709ZM9.38704 18.9827C8.10414 18.9827 6.89165 18.7335 5.74956 18.2352C4.60747 17.7369 3.6101 17.0567 2.75744 16.1946C1.90479 15.3325 1.23205 14.324 0.739229 13.1692C0.24641 12.0145 0 10.7885 0 9.49134C0 8.19419 0.24641 6.96822 0.739229 5.81344C1.23205 4.65867 1.90479 3.65021 2.75744 2.78808C3.6101 1.92595 4.60747 1.24574 5.74956 0.747443C6.89165 0.249148 8.10414 0 9.38704 0C10.6699 0 11.8824 0.249148 13.0245 0.747443C14.1666 1.24574 15.164 1.92595 16.0166 2.78808C16.8693 3.65021 17.542 4.65867 18.0348 5.81344C18.5277 6.96822 18.7741 8.19419 18.7741 9.49134C18.7741 10.7885 18.5277 12.0145 18.0348 13.1692C17.542 14.324 16.8693 15.3325 16.0166 16.1946C15.164 17.0567 14.1666 17.7369 13.0245 18.2352C11.8824 18.7335 10.6699 18.9827 9.38704 18.9827ZM9.38704 17.559C11.5773 17.559 13.4548 16.768 15.0193 15.1861C16.5838 13.6043 17.366 11.706 17.366 9.49134C17.366 7.27669 16.5838 5.37842 15.0193 3.79654C13.4548 2.21465 11.5773 1.4237 9.38704 1.4237C7.19673 1.4237 5.31932 2.21465 3.75481 3.79654C2.19031 5.37842 1.40806 7.27669 1.40806 9.49134C1.40806 11.706 2.19031 13.6043 3.75481 15.1861C5.31932 16.768 7.19673 17.559 9.38704 17.559Z" fill="#1E1E1E"/>
</svg>
