<svg xmlns="http://www.w3.org/2000/svg" width="1439" height="512" viewBox="0 0 1439 512" fill="none">
  <path d="M1439 190L1439 309C1407.96 315.505 1340.63 312.219 1305.49 307.565C1253.91 300.732 1107.34 269.886 1008.14 288.982C964.104 297.46 854.486 342.857 818.178 362.53C724.474 413.301 628.188 446.211 566.556 443.019C400.352 434.411 361.202 372.378 210.332 376.861C166.321 378.168 63.7227 405.906 -4.20744e-05 511.5L0.000233743 345.5L0.000140135 345.499L-8.71581e-05 201.5C31.0411 194.995 97.9861 196.705 133.118 201.359C184.702 208.192 331.276 239.038 430.471 219.942C474.507 211.465 584.124 166.066 620.432 146.394C714.137 95.6219 810.423 62.7117 872.055 65.9038C1038.26 74.5119 1077.41 136.546 1228.28 132.064C1272.29 130.756 1375.28 105.594 1439 0.000229081L1439 190Z" fill="#171730"/>
</svg>
