<svg xmlns="http://www.w3.org/2000/svg" width="1439" height="537" viewBox="0 0 1439 537" fill="none">
  <path d="M1439 175.499L1439 333C1391.22 337.601 1361.9 341.232 1267.56 331.731C1215.78 326.518 1121.02 301.137 1021.82 320.233C977.788 328.711 856.596 382.255 820.288 401.927C726.583 452.699 630.297 485.609 568.665 482.417C402.46 473.809 374.637 405.662 223.767 410.145C179.756 411.452 63.7231 431.406 0.000262062 537L-0.00052412 325.999L0.000173556 214C47.7791 209.399 77.0975 206.767 171.442 216.267C223.216 221.481 317.98 246.862 417.176 227.766C461.212 219.288 582.404 165.744 618.712 146.071C712.417 95.2996 808.703 62.3894 870.335 65.5815C1036.54 74.1897 1064.36 142.336 1215.23 137.854C1259.24 136.547 1375.28 105.594 1439 -0.000184978L1439 175.499Z" fill="#498CCB"/>
</svg>
